<svg width="312" height="176" viewBox="0 0 312 176" fill="none" xmlns="http://www.w3.org/2000/svg">
<path d="M187.881 67.8056C187.881 84.7576 173.424 98.5 155.59 98.5C137.757 98.5 123.3 84.7576 123.3 67.8056C123.3 50.8535 155.59 13.5 155.59 13.5C155.59 13.5 187.881 50.8535 187.881 67.8056Z" fill="#FFA800"/>
<path d="M182.01 70.0143C182.01 84.2322 170.181 95.7581 155.59 95.7581C140.999 95.7581 129.171 84.2322 129.171 70.0143C129.171 55.7965 155.59 24.4677 155.59 24.4677C155.59 24.4677 182.01 55.7965 182.01 70.0143Z" fill="black"/>
<path d="M153.189 91.6986C153.158 92.4162 153.757 93.0247 154.525 93.0131C158.135 92.9587 161.694 92.1732 164.956 90.7047C168.637 89.0478 171.825 86.572 174.242 83.4948C176.658 80.4177 178.229 76.8333 178.816 73.0566C179.336 69.7095 179.069 66.3021 178.04 63.07C177.821 62.3816 177.02 62.0313 176.297 62.2739C175.573 62.5165 175.202 63.2602 175.415 63.95C176.293 66.78 176.515 69.7575 176.061 72.6832C175.539 76.0385 174.144 79.223 171.997 81.9568C169.85 84.6906 167.017 86.8902 163.747 88.3623C160.896 89.6458 157.789 90.3421 154.636 90.4102C153.867 90.4268 153.219 90.9811 153.189 91.6986Z" fill="white"/>
<path d="M86.2394 122.244V154.5H82.9754V137.508C82.9754 134.212 83.0714 131.028 83.2634 127.956L76.6874 145.908H73.0874L66.4154 127.956C66.6394 130.932 66.7514 134.1 66.7514 137.46V154.5H63.5354V122.244H67.5674L74.8634 142.452L82.1594 122.244H86.2394ZM105.263 129.444C105.263 126.404 103.679 124.884 100.511 124.884C97.3751 124.884 95.8071 126.404 95.8071 129.444V147.3C95.8071 150.372 97.3751 151.908 100.511 151.908C103.679 151.908 105.263 150.372 105.263 147.3V129.444ZM92.3991 129.396C92.3991 127.124 93.0871 125.284 94.4631 123.876C95.8391 122.468 97.8551 121.764 100.511 121.764C103.199 121.764 105.231 122.468 106.607 123.876C107.983 125.284 108.671 127.124 108.671 129.396V147.396C108.671 149.668 107.983 151.508 106.607 152.916C105.231 154.292 103.199 154.98 100.511 154.98C97.8231 154.98 95.7911 154.292 94.4151 152.916C93.0711 151.508 92.3991 149.668 92.3991 147.396V129.396ZM127.873 122.244V125.268H121.633V154.5H118.177V125.268H111.937V122.244H127.873ZM143.982 129.444C143.982 126.404 142.398 124.884 139.23 124.884C136.094 124.884 134.526 126.404 134.526 129.444V147.3C134.526 150.372 136.094 151.908 139.23 151.908C142.398 151.908 143.982 150.372 143.982 147.3V129.444ZM131.118 129.396C131.118 127.124 131.806 125.284 133.182 123.876C134.558 122.468 136.574 121.764 139.23 121.764C141.918 121.764 143.95 122.468 145.326 123.876C146.702 125.284 147.39 127.124 147.39 129.396V147.396C147.39 149.668 146.702 151.508 145.326 152.916C143.95 154.292 141.918 154.98 139.23 154.98C136.542 154.98 134.51 154.292 133.134 152.916C131.79 151.508 131.118 149.668 131.118 147.396V129.396ZM161.695 141.54H156.943V154.5H153.535V122.244H161.359C163.919 122.244 165.855 122.9 167.167 124.212C168.479 125.492 169.135 127.252 169.135 129.492V134.244C169.135 137.7 167.759 139.94 165.007 140.964L170.143 154.5H166.399L161.695 141.54ZM156.943 138.564H161.215C164.223 138.564 165.727 137.108 165.727 134.196V129.636C165.727 126.724 164.223 125.268 161.215 125.268H156.943V138.564ZM187.665 129.684C187.665 126.74 186.145 125.268 183.105 125.268H178.881V140.388H183.105C186.145 140.388 187.665 138.932 187.665 136.02V129.684ZM175.473 122.244H183.297C185.825 122.244 187.745 122.9 189.057 124.212C190.401 125.524 191.073 127.284 191.073 129.492V136.164C191.073 138.404 190.417 140.18 189.105 141.492C187.793 142.772 185.857 143.412 183.297 143.412H178.881V154.5H175.473V122.244ZM196.567 122.244H199.975V151.524H209.767V154.5H196.567V122.244ZM225.877 122.244H229.285V147.396C229.285 149.668 228.597 151.508 227.221 152.916C225.877 154.292 223.861 154.98 221.173 154.98C218.485 154.98 216.453 154.292 215.077 152.916C213.733 151.508 213.061 149.668 213.061 147.396V122.244H216.469V147.3C216.469 150.372 218.037 151.908 221.173 151.908C224.309 151.908 225.877 150.372 225.877 147.3V122.244ZM233.692 128.772C233.692 126.66 234.396 125.012 235.804 123.828C237.212 122.612 239.18 122.004 241.708 122.004C244.268 122.004 246.428 122.276 248.188 122.82V126.084C246.524 125.476 244.492 125.172 242.092 125.172C238.796 125.172 237.148 126.42 237.148 128.916V131.22C237.148 132.34 237.356 133.22 237.772 133.86C238.22 134.5 238.956 135.108 239.98 135.684L245.548 138.804C248.14 140.212 249.436 142.34 249.436 145.188V147.78C249.436 149.988 248.684 151.7 247.18 152.916C245.676 154.132 243.5 154.74 240.652 154.74C237.836 154.74 235.596 154.42 233.932 153.78V150.516C235.82 151.22 237.964 151.572 240.364 151.572C244.14 151.572 246.028 150.244 246.028 147.588V145.572C246.028 144.516 245.836 143.684 245.452 143.076C245.068 142.468 244.38 141.892 243.388 141.348L237.868 138.324C235.084 136.82 233.692 134.58 233.692 131.604V128.772Z" fill="black"/>
</svg>
