<svg width="312" height="176" viewBox="0 0 312 176" fill="none" xmlns="http://www.w3.org/2000/svg">
<path d="M188.38 67.8056C188.38 84.7576 173.923 98.5 156.09 98.5C138.256 98.5 123.799 84.7576 123.799 67.8056C123.799 50.8535 156.09 13.5 156.09 13.5C156.09 13.5 188.38 50.8535 188.38 67.8056Z" fill="#FFA800"/>
<path d="M182.509 70.0143C182.509 84.2322 170.681 95.7581 156.09 95.7581C141.499 95.7581 129.67 84.2322 129.67 70.0143C129.67 55.7965 156.09 24.4677 156.09 24.4677C156.09 24.4677 182.509 55.7965 182.509 70.0143Z" fill="black"/>
<path d="M153.688 91.6986C153.657 92.4162 154.256 93.0247 155.024 93.0131C158.634 92.9587 162.194 92.1732 165.455 90.7047C169.136 89.0478 172.324 86.572 174.741 83.4948C177.158 80.4177 178.728 76.8333 179.315 73.0566C179.835 69.7095 179.568 66.3021 178.54 63.07C178.321 62.3816 177.519 62.0313 176.796 62.2739C176.072 62.5165 175.701 63.2602 175.915 63.95C176.792 66.78 177.014 69.7575 176.56 72.6832C176.039 76.0385 174.643 79.223 172.496 81.9568C170.349 84.6906 167.517 86.8902 164.247 88.3623C161.396 89.6458 158.288 90.3421 155.135 90.4102C154.366 90.4268 153.718 90.9811 153.688 91.6986Z" fill="white"/>
<path d="M86.7387 122.244V154.5H83.4747V137.508C83.4747 134.212 83.5707 131.028 83.7627 127.956L77.1867 145.908H73.5867L66.9147 127.956C67.1387 130.932 67.2507 134.1 67.2507 137.46V154.5H64.0347V122.244H68.0667L75.3627 142.452L82.6587 122.244H86.7387ZM105.762 129.444C105.762 126.404 104.178 124.884 101.01 124.884C97.8744 124.884 96.3064 126.404 96.3064 129.444V147.3C96.3064 150.372 97.8744 151.908 101.01 151.908C104.178 151.908 105.762 150.372 105.762 147.3V129.444ZM92.8984 129.396C92.8984 127.124 93.5864 125.284 94.9624 123.876C96.3384 122.468 98.3544 121.764 101.01 121.764C103.698 121.764 105.73 122.468 107.106 123.876C108.482 125.284 109.17 127.124 109.17 129.396V147.396C109.17 149.668 108.482 151.508 107.106 152.916C105.73 154.292 103.698 154.98 101.01 154.98C98.3224 154.98 96.2904 154.292 94.9144 152.916C93.5704 151.508 92.8984 149.668 92.8984 147.396V129.396ZM128.372 122.244V125.268H122.132V154.5H118.676V125.268H112.436V122.244H128.372ZM144.481 129.444C144.481 126.404 142.897 124.884 139.729 124.884C136.593 124.884 135.025 126.404 135.025 129.444V147.3C135.025 150.372 136.593 151.908 139.729 151.908C142.897 151.908 144.481 150.372 144.481 147.3V129.444ZM131.617 129.396C131.617 127.124 132.305 125.284 133.681 123.876C135.057 122.468 137.073 121.764 139.729 121.764C142.417 121.764 144.449 122.468 145.825 123.876C147.201 125.284 147.889 127.124 147.889 129.396V147.396C147.889 149.668 147.201 151.508 145.825 152.916C144.449 154.292 142.417 154.98 139.729 154.98C137.041 154.98 135.009 154.292 133.633 152.916C132.289 151.508 131.617 149.668 131.617 147.396V129.396ZM162.195 141.54H157.443V154.5H154.035V122.244H161.859C164.419 122.244 166.355 122.9 167.667 124.212C168.979 125.492 169.635 127.252 169.635 129.492V134.244C169.635 137.7 168.259 139.94 165.507 140.964L170.643 154.5H166.899L162.195 141.54ZM157.443 138.564H161.715C164.723 138.564 166.227 137.108 166.227 134.196V129.636C166.227 126.724 164.723 125.268 161.715 125.268H157.443V138.564ZM188.164 129.684C188.164 126.74 186.644 125.268 183.604 125.268H179.38V140.388H183.604C186.644 140.388 188.164 138.932 188.164 136.02V129.684ZM175.972 122.244H183.796C186.324 122.244 188.244 122.9 189.556 124.212C190.9 125.524 191.572 127.284 191.572 129.492V136.164C191.572 138.404 190.916 140.18 189.604 141.492C188.292 142.772 186.356 143.412 183.796 143.412H179.38V154.5H175.972V122.244ZM197.066 122.244H200.474V151.524H210.266V154.5H197.066V122.244ZM226.376 122.244H229.784V147.396C229.784 149.668 229.096 151.508 227.72 152.916C226.376 154.292 224.36 154.98 221.672 154.98C218.984 154.98 216.952 154.292 215.576 152.916C214.232 151.508 213.56 149.668 213.56 147.396V122.244H216.968V147.3C216.968 150.372 218.536 151.908 221.672 151.908C224.808 151.908 226.376 150.372 226.376 147.3V122.244ZM234.192 128.772C234.192 126.66 234.896 125.012 236.304 123.828C237.712 122.612 239.68 122.004 242.208 122.004C244.768 122.004 246.928 122.276 248.688 122.82V126.084C247.024 125.476 244.992 125.172 242.592 125.172C239.296 125.172 237.648 126.42 237.648 128.916V131.22C237.648 132.34 237.856 133.22 238.272 133.86C238.72 134.5 239.456 135.108 240.48 135.684L246.048 138.804C248.64 140.212 249.936 142.34 249.936 145.188V147.78C249.936 149.988 249.184 151.7 247.68 152.916C246.176 154.132 244 154.74 241.152 154.74C238.336 154.74 236.096 154.42 234.432 153.78V150.516C236.32 151.22 238.464 151.572 240.864 151.572C244.64 151.572 246.528 150.244 246.528 147.588V145.572C246.528 144.516 246.336 143.684 245.952 143.076C245.568 142.468 244.88 141.892 243.888 141.348L238.368 138.324C235.584 136.82 234.192 134.58 234.192 131.604V128.772Z" fill="black"/>
</svg>
